<?xml version="1.0" encoding="UTF-8" standalone="no"?>
<!DOCTYPE svg PUBLIC "-//W3C//DTD SVG 1.1//EN" "http://www.w3.org/Graphics/SVG/1.1/DTD/svg11.dtd">
<svg width="100%" height="100%" viewBox="0 0 24 18" version="1.1" xmlns="http://www.w3.org/2000/svg" xmlns:xlink="http://www.w3.org/1999/xlink" xml:space="preserve" xmlns:serif="http://www.serif.com/" style="fill-rule:evenodd;clip-rule:evenodd;stroke-linejoin:round;stroke-miterlimit:2;">
    <g transform="matrix(1,0,0,1,0,-3)">
        <path d="M10,19.5C10,20.329 9.328,21 8.5,21C7.672,21 7,20.329 7,19.5C7,18.672 7.672,18 8.5,18C9.328,18 10,18.672 10,19.5ZM13.5,18C12.672,18 12,18.671 12,19.5C12,20.329 12.672,21 13.5,21C14.328,21 15,20.329 15,19.5C15,18.672 14.328,18 13.5,18ZM14.836,13L16.813,6L0,6L2.938,13L14.836,13ZM19.805,3L16.373,15L3.776,15L4.615,17L17.854,17L21.328,5L23.257,5L24,3L19.805,3Z" style="fill:white;fill-rule:nonzero;"/>
    </g>
</svg>
