<?xml version="1.0" encoding="UTF-8" standalone="no"?>
<!DOCTYPE svg PUBLIC "-//W3C//DTD SVG 1.1//EN" "http://www.w3.org/Graphics/SVG/1.1/DTD/svg11.dtd">
<svg width="100%" height="100%" viewBox="0 0 24 20" version="1.1" xmlns="http://www.w3.org/2000/svg" xmlns:xlink="http://www.w3.org/1999/xlink" xml:space="preserve" xmlns:serif="http://www.serif.com/" style="fill-rule:evenodd;clip-rule:evenodd;stroke-linejoin:round;stroke-miterlimit:2;">
    <g transform="matrix(1,0,0,1,0,-2)">
        <path d="M4,22L0,22L0,18L4,18L4,22ZM4,10L0,10L0,14L4,14L4,10ZM4,2L0,2L0,6L4,6L4,2ZM7,2L7,6L24,6L24,2L7,2ZM7,14L24,14L24,10L7,10L7,14ZM7,22L24,22L24,18L7,18L7,22Z" style="fill:white;fill-rule:nonzero;"/>
    </g>
</svg>
